<svg version="1.1" xmlns="http://www.w3.org/2000/svg" viewBox="0 0 390.248046875 251.830078125">
  <!-- svg-source:excalidraw -->
  <defs>
    <style>
      @font-face {
        font-family: "Virgil";
        src: url("https://excalidraw.com/FG_Virgil.woff2");
      }
      @font-face {
        font-family: "Cascadia";
        src: url("https://excalidraw.com/Cascadia.woff2");
      }
    </style>
  </defs>
  <rect x="0" y="0" width="390.248046875" height="251.830078125" fill="#ffffff"></rect><g transform="translate(10 10) rotate(0 28.638671875 28.638671875)"><path d="M28.638671875 0 C34.468056630723986 -0.36564159080252523, 42.346657631049595 2.755906644664307, 47.04725531412837 6.700176426848486 C51.74785299720715 10.644446209032665, 55.776718984261244 17.622646795496493, 56.84225797347267 23.665618693105078 C57.907796962684095 29.708590590713662, 56.50858648925165 37.64390751050978, 53.44048924939692 42.9580078125 C50.37239200954219 48.27210811449022, 44.1998112066345 53.451518389622024, 38.4336745343443 55.55022050504643 C32.6675378620541 57.64892262047084, 24.609805887945907 57.64892262047084, 18.8436692156557 55.55022050504644 C13.077532543365496 53.45151838962204, 6.904951740457806 48.27210811449023, 3.836854500603078 42.9580078125 C0.7687572607483495 37.64390751050977, -0.6304532126840943 29.70859059071366, 0.4350857765273304 23.665618693105074 C1.500624765738755 17.62264679549649, 5.529490752792848 10.644446209032669, 10.230088435871625 6.70017642684849 C14.930686118950403 2.755906644664311, 25.570574635145267 1.0212338315580816, 28.638671874999996 0 C31.706769114854726 -1.0212338315580816, 28.638671875 0.095462239583334, 28.638671875 0.5727734375000004 M28.638671875 0 C34.468056630723986 -0.36564159080252523, 42.346657631049595 2.755906644664307, 47.04725531412837 6.700176426848486 C51.74785299720715 10.644446209032665, 55.776718984261244 17.622646795496493, 56.84225797347267 23.665618693105078 C57.907796962684095 29.708590590713662, 56.50858648925165 37.64390751050978, 53.44048924939692 42.9580078125 C50.37239200954219 48.27210811449022, 44.1998112066345 53.451518389622024, 38.4336745343443 55.55022050504643 C32.6675378620541 57.64892262047084, 24.609805887945907 57.64892262047084, 18.8436692156557 55.55022050504644 C13.077532543365496 53.45151838962204, 6.904951740457806 48.27210811449023, 3.836854500603078 42.9580078125 C0.7687572607483495 37.64390751050977, -0.6304532126840943 29.70859059071366, 0.4350857765273304 23.665618693105074 C1.500624765738755 17.62264679549649, 5.529490752792848 10.644446209032669, 10.230088435871625 6.70017642684849 C14.930686118950403 2.755906644664311, 25.570574635145267 1.0212338315580816, 28.638671874999996 0 C31.706769114854726 -1.0212338315580816, 28.638671875 0.095462239583334, 28.638671875 0.5727734375000004" stroke="#000000" stroke-width="1" fill="none"></path></g><g transform="translate(28.142578125 19.681640625) rotate(0 11 17.5)"><text x="11" y="25" font-family="Virgil, Segoe UI Emoji" font-size="28px" fill="#000000" text-anchor="middle" style="white-space: pre;" direction="ltr">0</text></g><g transform="translate(190.837890625 10.845703125) rotate(0 28.638671875 28.638671875)"><path d="M28.638671875 0 C34.468056630723986 -0.36564159080252523, 42.346657631049595 2.755906644664307, 47.04725531412837 6.700176426848486 C51.74785299720715 10.644446209032665, 55.776718984261244 17.622646795496493, 56.84225797347267 23.665618693105078 C57.907796962684095 29.708590590713662, 56.50858648925165 37.64390751050978, 53.44048924939692 42.9580078125 C50.37239200954219 48.27210811449022, 44.1998112066345 53.451518389622024, 38.4336745343443 55.55022050504643 C32.6675378620541 57.64892262047084, 24.609805887945907 57.64892262047084, 18.8436692156557 55.55022050504644 C13.077532543365496 53.45151838962204, 6.904951740457806 48.27210811449023, 3.836854500603078 42.9580078125 C0.7687572607483495 37.64390751050977, -0.6304532126840943 29.70859059071366, 0.4350857765273304 23.665618693105074 C1.500624765738755 17.62264679549649, 5.529490752792848 10.644446209032669, 10.230088435871625 6.70017642684849 C14.930686118950403 2.755906644664311, 25.570574635145267 1.0212338315580816, 28.638671874999996 0 C31.706769114854726 -1.0212338315580816, 28.638671875 0.095462239583334, 28.638671875 0.5727734375000004 M28.638671875 0 C34.468056630723986 -0.36564159080252523, 42.346657631049595 2.755906644664307, 47.04725531412837 6.700176426848486 C51.74785299720715 10.644446209032665, 55.776718984261244 17.622646795496493, 56.84225797347267 23.665618693105078 C57.907796962684095 29.708590590713662, 56.50858648925165 37.64390751050978, 53.44048924939692 42.9580078125 C50.37239200954219 48.27210811449022, 44.1998112066345 53.451518389622024, 38.4336745343443 55.55022050504643 C32.6675378620541 57.64892262047084, 24.609805887945907 57.64892262047084, 18.8436692156557 55.55022050504644 C13.077532543365496 53.45151838962204, 6.904951740457806 48.27210811449023, 3.836854500603078 42.9580078125 C0.7687572607483495 37.64390751050977, -0.6304532126840943 29.70859059071366, 0.4350857765273304 23.665618693105074 C1.500624765738755 17.62264679549649, 5.529490752792848 10.644446209032669, 10.230088435871625 6.70017642684849 C14.930686118950403 2.755906644664311, 25.570574635145267 1.0212338315580816, 28.638671874999996 0 C31.706769114854726 -1.0212338315580816, 28.638671875 0.095462239583334, 28.638671875 0.5727734375000004" stroke="#000000" stroke-width="1" fill="none"></path></g><g transform="translate(12.232421875 155.361328125) rotate(0 28.638671875 28.638671875)"><path d="M28.638671875 0 C34.468056630723986 -0.36564159080252523, 42.346657631049595 2.755906644664307, 47.04725531412837 6.700176426848486 C51.74785299720715 10.644446209032665, 55.776718984261244 17.622646795496493, 56.84225797347267 23.665618693105078 C57.907796962684095 29.708590590713662, 56.50858648925165 37.64390751050978, 53.44048924939692 42.9580078125 C50.37239200954219 48.27210811449022, 44.1998112066345 53.451518389622024, 38.4336745343443 55.55022050504643 C32.6675378620541 57.64892262047084, 24.609805887945907 57.64892262047084, 18.8436692156557 55.55022050504644 C13.077532543365496 53.45151838962204, 6.904951740457806 48.27210811449023, 3.836854500603078 42.9580078125 C0.7687572607483495 37.64390751050977, -0.6304532126840943 29.70859059071366, 0.4350857765273304 23.665618693105074 C1.500624765738755 17.62264679549649, 5.529490752792848 10.644446209032669, 10.230088435871625 6.70017642684849 C14.930686118950403 2.755906644664311, 25.570574635145267 1.0212338315580816, 28.638671874999996 0 C31.706769114854726 -1.0212338315580816, 28.638671875 0.095462239583334, 28.638671875 0.5727734375000004 M28.638671875 0 C34.468056630723986 -0.36564159080252523, 42.346657631049595 2.755906644664307, 47.04725531412837 6.700176426848486 C51.74785299720715 10.644446209032665, 55.776718984261244 17.622646795496493, 56.84225797347267 23.665618693105078 C57.907796962684095 29.708590590713662, 56.50858648925165 37.64390751050978, 53.44048924939692 42.9580078125 C50.37239200954219 48.27210811449022, 44.1998112066345 53.451518389622024, 38.4336745343443 55.55022050504643 C32.6675378620541 57.64892262047084, 24.609805887945907 57.64892262047084, 18.8436692156557 55.55022050504644 C13.077532543365496 53.45151838962204, 6.904951740457806 48.27210811449023, 3.836854500603078 42.9580078125 C0.7687572607483495 37.64390751050977, -0.6304532126840943 29.70859059071366, 0.4350857765273304 23.665618693105074 C1.500624765738755 17.62264679549649, 5.529490752792848 10.644446209032669, 10.230088435871625 6.70017642684849 C14.930686118950403 2.755906644664311, 25.570574635145267 1.0212338315580816, 28.638671874999996 0 C31.706769114854726 -1.0212338315580816, 28.638671875 0.095462239583334, 28.638671875 0.5727734375000004" stroke="#000000" stroke-width="1" fill="none"></path></g><g transform="translate(192.095703125 158.552734375) rotate(0 28.638671875 28.638671875)"><path d="M28.638671875 0 C34.468056630723986 -0.36564159080252523, 42.346657631049595 2.755906644664307, 47.04725531412837 6.700176426848486 C51.74785299720715 10.644446209032665, 55.776718984261244 17.622646795496493, 56.84225797347267 23.665618693105078 C57.907796962684095 29.708590590713662, 56.50858648925165 37.64390751050978, 53.44048924939692 42.9580078125 C50.37239200954219 48.27210811449022, 44.1998112066345 53.451518389622024, 38.4336745343443 55.55022050504643 C32.6675378620541 57.64892262047084, 24.609805887945907 57.64892262047084, 18.8436692156557 55.55022050504644 C13.077532543365496 53.45151838962204, 6.904951740457806 48.27210811449023, 3.836854500603078 42.9580078125 C0.7687572607483495 37.64390751050977, -0.6304532126840943 29.70859059071366, 0.4350857765273304 23.665618693105074 C1.500624765738755 17.62264679549649, 5.529490752792848 10.644446209032669, 10.230088435871625 6.70017642684849 C14.930686118950403 2.755906644664311, 25.570574635145267 1.0212338315580816, 28.638671874999996 0 C31.706769114854726 -1.0212338315580816, 28.638671875 0.095462239583334, 28.638671875 0.5727734375000004 M28.638671875 0 C34.468056630723986 -0.36564159080252523, 42.346657631049595 2.755906644664307, 47.04725531412837 6.700176426848486 C51.74785299720715 10.644446209032665, 55.776718984261244 17.622646795496493, 56.84225797347267 23.665618693105078 C57.907796962684095 29.708590590713662, 56.50858648925165 37.64390751050978, 53.44048924939692 42.9580078125 C50.37239200954219 48.27210811449022, 44.1998112066345 53.451518389622024, 38.4336745343443 55.55022050504643 C32.6675378620541 57.64892262047084, 24.609805887945907 57.64892262047084, 18.8436692156557 55.55022050504644 C13.077532543365496 53.45151838962204, 6.904951740457806 48.27210811449023, 3.836854500603078 42.9580078125 C0.7687572607483495 37.64390751050977, -0.6304532126840943 29.70859059071366, 0.4350857765273304 23.665618693105074 C1.500624765738755 17.62264679549649, 5.529490752792848 10.644446209032669, 10.230088435871625 6.70017642684849 C14.930686118950403 2.755906644664311, 25.570574635145267 1.0212338315580816, 28.638671874999996 0 C31.706769114854726 -1.0212338315580816, 28.638671875 0.095462239583334, 28.638671875 0.5727734375000004" stroke="#000000" stroke-width="1" fill="none"></path></g><g transform="translate(322.970703125 77.431640625) rotate(0 28.638671875 28.638671875)"><path d="M28.638671875 0 C34.468056630723986 -0.36564159080252523, 42.346657631049595 2.755906644664307, 47.04725531412837 6.700176426848486 C51.74785299720715 10.644446209032665, 55.776718984261244 17.622646795496493, 56.84225797347267 23.665618693105078 C57.907796962684095 29.708590590713662, 56.50858648925165 37.64390751050978, 53.44048924939692 42.9580078125 C50.37239200954219 48.27210811449022, 44.1998112066345 53.451518389622024, 38.4336745343443 55.55022050504643 C32.6675378620541 57.64892262047084, 24.609805887945907 57.64892262047084, 18.8436692156557 55.55022050504644 C13.077532543365496 53.45151838962204, 6.904951740457806 48.27210811449023, 3.836854500603078 42.9580078125 C0.7687572607483495 37.64390751050977, -0.6304532126840943 29.70859059071366, 0.4350857765273304 23.665618693105074 C1.500624765738755 17.62264679549649, 5.529490752792848 10.644446209032669, 10.230088435871625 6.70017642684849 C14.930686118950403 2.755906644664311, 25.570574635145267 1.0212338315580816, 28.638671874999996 0 C31.706769114854726 -1.0212338315580816, 28.638671875 0.095462239583334, 28.638671875 0.5727734375000004 M28.638671875 0 C34.468056630723986 -0.36564159080252523, 42.346657631049595 2.755906644664307, 47.04725531412837 6.700176426848486 C51.74785299720715 10.644446209032665, 55.776718984261244 17.622646795496493, 56.84225797347267 23.665618693105078 C57.907796962684095 29.708590590713662, 56.50858648925165 37.64390751050978, 53.44048924939692 42.9580078125 C50.37239200954219 48.27210811449022, 44.1998112066345 53.451518389622024, 38.4336745343443 55.55022050504643 C32.6675378620541 57.64892262047084, 24.609805887945907 57.64892262047084, 18.8436692156557 55.55022050504644 C13.077532543365496 53.45151838962204, 6.904951740457806 48.27210811449023, 3.836854500603078 42.9580078125 C0.7687572607483495 37.64390751050977, -0.6304532126840943 29.70859059071366, 0.4350857765273304 23.665618693105074 C1.500624765738755 17.62264679549649, 5.529490752792848 10.644446209032669, 10.230088435871625 6.70017642684849 C14.930686118950403 2.755906644664311, 25.570574635145267 1.0212338315580816, 28.638671874999996 0 C31.706769114854726 -1.0212338315580816, 28.638671875 0.095462239583334, 28.638671875 0.5727734375000004" stroke="#000000" stroke-width="1" fill="none"></path></g><g transform="translate(343.99609375 88.73046875) rotate(0 8 17.5)"><text x="8" y="25" font-family="Virgil, Segoe UI Emoji" font-size="28px" fill="#000000" text-anchor="middle" style="white-space: pre;" direction="ltr">4</text></g><g><g transform="translate(330.0546875 86.26953125) rotate(0 -41.630859375 -17.373046875)"><path d="M0 0 C-13.876953125 -5.791015625, -69.384765625 -28.955078125, -83.26171875 -34.74609375 M0 0 C-13.876953125 -5.791015625, -69.384765625 -28.955078125, -83.26171875 -34.74609375" stroke="#000000" stroke-width="1" fill="none"></path></g><g transform="translate(330.0546875 86.26953125) rotate(0 -41.630859375 -17.373046875)"><path d="M-53.293833378345255 -33.35834508710693 C-59.81261430690614 -33.66021588663488, -66.33139523546703 -33.96208668616282, -83.26171875 -34.74609375 M-53.293833378345255 -33.35834508710693 C-60.46726546604272 -33.69053138135485, -67.64069755374018 -34.02271767560277, -83.26171875 -34.74609375" stroke="#000000" stroke-width="1" fill="none"></path></g><g transform="translate(330.0546875 86.26953125) rotate(0 -41.630859375 -17.373046875)"><path d="M-61.19701433488409 -14.420031192938815 C-65.9966514314554 -18.84146925259693, -70.79628852802671 -23.262907312255045, -83.26171875 -34.74609375 M-61.19701433488409 -14.420031192938815 C-66.47865688970586 -19.28549392262749, -71.76029944452762 -24.150956652316168, -83.26171875 -34.74609375" stroke="#000000" stroke-width="1" fill="none"></path></g></g><g><g transform="translate(67.37890625 39.796875) rotate(0 60.818359375 0)"><path d="M0 0 C20.272786458333332 0, 101.36393229166667 0, 121.63671875 0 M0 0 C20.272786458333332 0, 101.36393229166667 0, 121.63671875 0" stroke="#000000" stroke-width="1" fill="none"></path></g><g transform="translate(67.37890625 39.796875) rotate(0 60.818359375 0)"><path d="M93.44594012642276 10.260604299770062 C101.91752405146529 7.177199913966534, 110.38910797650783 4.093795528163006, 121.63671875 0 M93.44594012642276 10.260604299770062 C100.88015683493504 7.554770702787133, 108.3143735434473 4.848937105804205, 121.63671875 0" stroke="#000000" stroke-width="1" fill="none"></path></g><g transform="translate(67.37890625 39.796875) rotate(0 60.818359375 0)"><path d="M93.44594012642276 -10.260604299770062 C101.91752405146529 -7.177199913966534, 110.38910797650783 -4.093795528163006, 121.63671875 0 M93.44594012642276 -10.260604299770062 C100.88015683493504 -7.554770702787133, 108.3143735434473 -4.848937105804205, 121.63671875 0" stroke="#000000" stroke-width="1" fill="none"></path></g></g><g><g transform="translate(40.22265625 67.21875) rotate(0 0 44.64453125)"><path d="M0 0 C0 14.881510416666666, 0 74.40755208333333, 0 89.2890625 M0 0 C0 14.881510416666666, 0 74.40755208333333, 0 89.2890625" stroke="#000000" stroke-width="1" fill="none"></path></g><g transform="translate(40.22265625 67.21875) rotate(0 0 44.64453125)"><path d="M-10.260604299770062 61.09828387642275 C-6.64187893473995 71.04065010405067, -3.0231535697098364 80.98301633167858, 0 89.2890625 M-10.260604299770062 61.09828387642275 C-6.658479070511849 70.9950416058575, -3.0563538412536353 80.89179933529223, 0 89.2890625" stroke="#000000" stroke-width="1" fill="none"></path></g><g transform="translate(40.22265625 67.21875) rotate(0 0 44.64453125)"><path d="M10.260604299770062 61.09828387642275 C6.64187893473995 71.04065010405067, 3.0231535697098364 80.98301633167858, 0 89.2890625 M10.260604299770062 61.09828387642275 C6.658479070511849 70.9950416058575, 3.0563538412536353 80.89179933529223, 0 89.2890625" stroke="#000000" stroke-width="1" fill="none"></path></g></g><g><g transform="translate(41.619449254407925 153.31364825729028) rotate(0 -0.33511525220396265 -43.56502725364514)"><path d="M0 0 C-0.11170508406798756 -14.521675751215048, -0.5585254203399378 -72.60837875607524, -0.6702305044079253 -87.13005450729028 M0 0 C-0.11170508406798756 -14.521675751215048, -0.5585254203399378 -72.60837875607524, -0.6702305044079253 -87.13005450729028" stroke="#000000" stroke-width="1" fill="none"></path></g><g transform="translate(41.619449254407925 153.31364825729028) rotate(0 -0.33511525220396265 -43.56502725364514)"><path d="M9.806915747754783 -59.019035201495036 C6.578573020572184 -67.68093630942512, 3.3502302933895862 -76.34283741735521, -0.6702305044079253 -87.13005450729028 M9.806915747754783 -59.019035201495036 C7.6567400762299584 -64.78812807834676, 5.506564404705133 -70.55722095519849, -0.6702305044079253 -87.13005450729028" stroke="#000000" stroke-width="1" fill="none"></path></g><g transform="translate(41.619449254407925 153.31364825729028) rotate(0 -0.33511525220396265 -43.56502725364514)"><path d="M-10.71368574361814 -58.86118458191157 C-7.6189770417523714 -67.57172449734216, -4.524268339886603 -76.28226441277275, -0.6702305044079253 -87.13005450729028 M-10.71368574361814 -58.86118458191157 C-8.652514448148189 -64.66267240236671, -6.59134315267824 -70.46416022282183, -0.6702305044079253 -87.13005450729028" stroke="#000000" stroke-width="1" fill="none"></path></g></g><g><g transform="translate(61.19140625 57.15234375) rotate(0 68.228515625 55.7109375)"><path d="M0 0 C22.742838541666668 18.5703125, 113.71419270833333 92.8515625, 136.45703125 111.421875 M0 0 C22.742838541666668 18.5703125, 113.71419270833333 92.8515625, 136.45703125 111.421875" stroke="#000000" stroke-width="1" fill="none"></path></g><g transform="translate(61.19140625 57.15234375) rotate(0 68.228515625 55.7109375)"><path d="M108.13139694977804 101.53964643099347 C114.37851117134511 103.71913551073963, 120.62562539291218 105.8986245904858, 136.45703125 111.421875 M108.13139694977804 101.53964643099347 C114.03217063029018 103.59830445173696, 119.93294431080234 105.65696247248046, 136.45703125 111.421875" stroke="#000000" stroke-width="1" fill="none"></path></g><g transform="translate(61.19140625 57.15234375) rotate(0 68.228515625 55.7109375)"><path d="M121.11051057674237 85.6442819543862 C124.49512913579542 91.32943507068414, 127.87974769484848 97.01458818698207, 136.45703125 111.421875 M121.11051057674237 85.6442819543862 C124.30748559648569 91.01424970085672, 127.50446061622901 96.38421744732725, 136.45703125 111.421875" stroke="#000000" stroke-width="1" fill="none"></path></g></g><g><g transform="translate(207.71336413975837 59.297289566241545) rotate(0 -69.55144936851849 57.13172566043289)"><path d="M0 0 C-23.18381645617283 19.043908553477632, -115.91908228086415 95.21954276738815, -139.10289873703698 114.26345132086578 M0 0 C-23.18381645617283 19.043908553477632, -115.91908228086415 95.21954276738815, -139.10289873703698 114.26345132086578" stroke="#000000" stroke-width="1" fill="none"></path></g><g transform="translate(207.71336413975837 59.297289566241545) rotate(0 -69.55144936851849 57.13172566043289)"><path d="M-123.83199346831191 88.44099109195605 C-127.77198798076468 95.1033565385088, -131.71198249321745 101.76572198506156, -139.10289873703698 114.26345132086578 M-123.83199346831191 88.44099109195605 C-127.81949856861132 95.183694949594, -131.80700366891074 101.92639880723196, -139.10289873703698 114.26345132086578" stroke="#000000" stroke-width="1" fill="none"></path></g><g transform="translate(207.71336413975837 59.297289566241545) rotate(0 -69.55144936851849 57.13172566043289)"><path d="M-110.80634912776719 104.29824785028202 C-118.10704599019874 106.86933622380405, -125.40774285263029 109.44042459732609, -139.10289873703698 114.26345132086578 M-110.80634912776719 104.29824785028202 C-118.19508174723545 106.90033979998813, -125.5838143667037 109.50243174969425, -139.10289873703698 114.26345132086578" stroke="#000000" stroke-width="1" fill="none"></path></g></g><g><g transform="translate(64.97516925803086 178.538689380704) rotate(0 70.24740032199958 -58.08889232484697)"><path d="M0 0 C23.415800107333194 -19.362964108282323, 117.07900053666596 -96.8148205414116, 140.49480064399916 -116.17778464969393 M0 0 C23.415800107333194 -19.362964108282323, 117.07900053666596 -96.8148205414116, 140.49480064399916 -116.17778464969393" stroke="#000000" stroke-width="1" fill="none"></path></g><g transform="translate(64.97516925803086 178.538689380704) rotate(0 70.24740032199958 -58.08889232484697)"><path d="M125.308361289595 -90.30555900644855 C128.57815844310258 -95.87611625090598, 131.84795559661015 -101.44667349536341, 140.49480064399916 -116.17778464969393 M125.308361289595 -90.30555900644855 C131.14261106940816 -100.24502034032636, 136.9768608492213 -110.18448167420419, 140.49480064399916 -116.17778464969393" stroke="#000000" stroke-width="1" fill="none"></path></g><g transform="translate(64.97516925803086 178.538689380704) rotate(0 70.24740032199958 -58.08889232484697)"><path d="M112.23096708730199 -106.12016501683252 C118.31646220265955 -108.28567434256232, 124.40195731801711 -110.45118366829212, 140.49480064399916 -116.17778464969393 M112.23096708730199 -106.12016501683252 C123.0892243032711 -109.98405066896525, 133.94748151924017 -113.84793632109799, 140.49480064399916 -116.17778464969393" stroke="#000000" stroke-width="1" fill="none"></path></g></g><g transform="translate(30.37109375 166.5) rotate(0 10.5 17.5)"><text x="10.5" y="25" font-family="Virgil, Segoe UI Emoji" font-size="28px" fill="#000000" text-anchor="middle" style="white-space: pre;" direction="ltr">2</text></g><g transform="translate(216.9765625 21.984375) rotate(0 2.5 17.5)"><text x="2.5" y="25" font-family="Virgil, Segoe UI Emoji" font-size="28px" fill="#000000" text-anchor="middle" style="white-space: pre;" direction="ltr">1</text></g><g transform="translate(210.734375 169.69140625) rotate(0 10 17.5)"><text x="10" y="25" font-family="Virgil, Segoe UI Emoji" font-size="28px" fill="#000000" text-anchor="middle" style="white-space: pre;" direction="ltr">3</text></g><g transform="translate(212.248046875 231.830078125) rotate(0 84 10)"><text x="168" y="14" font-family="Virgil, Segoe UI Emoji" font-size="16px" fill="#adb5bd" text-anchor="end" style="white-space: pre;" direction="ltr">Made with Excalidraw</text></g></svg>